<?xml version="1.0" standalone="no"?>
<!DOCTYPE svg PUBLIC "-//W3C//DTD SVG 20010904//EN"
 "http://www.w3.org/TR/2001/REC-SVG-20010904/DTD/svg10.dtd">
<svg version="1.0" xmlns="http://www.w3.org/2000/svg"
 width="420.000000pt" height="420.000000pt" viewBox="0 0 420.000000 420.000000"
 preserveAspectRatio="xMidYMid meet">
<metadata>
Created by potrace 1.14, written by Peter Selinger 2001-2017
</metadata>
<g transform="translate(0.000000,420.000000) scale(0.100000,-0.100000)"
fill="#000000" stroke="none">
<path d="M2168 3605 c-2 -2 -25 -6 -53 -9 -27 -3 -75 -14 -105 -25 -207 -75
-282 -106 -349 -148 -73 -45 -219 -181 -271 -252 -14 -19 -31 -40 -37 -47 -7
-7 -13 -15 -13 -19 0 -3 -11 -18 -25 -33 -14 -15 -25 -32 -25 -39 0 -6 -22
-33 -48 -60 -47 -46 -89 -100 -91 -115 -1 -5 -1 -9 -2 -10 -4 -14 -16 -79 -24
-132 -4 -21 -9 -48 -11 -60 -12 -60 -15 -185 -5 -223 6 -23 28 -59 47 -80 44
-47 54 -64 54 -98 l0 -26 -33 23 c-17 13 -34 21 -37 19 -3 -1 -13 -7 -23 -12
-49 -27 -63 -158 -33 -323 21 -119 50 -177 96 -192 32 -11 35 -15 46 -74 6
-36 18 -68 28 -75 9 -7 26 -41 37 -76 46 -143 104 -221 334 -447 171 -167 246
-234 261 -231 4 0 10 -4 14 -11 4 -6 13 -12 21 -14 8 -1 23 -7 34 -13 25 -13
84 -24 150 -29 86 -5 224 51 285 116 8 9 64 51 125 95 60 43 115 83 121 89 7
6 25 20 40 31 38 27 174 158 174 168 0 4 9 17 20 29 11 12 20 28 20 35 0 7 5
13 10 13 6 0 10 9 10 20 0 11 4 20 9 20 5 0 12 12 15 27 4 14 18 34 31 45 25
19 49 77 54 131 1 4 14 7 29 7 19 0 38 10 56 31 27 29 71 119 59 119 -3 0 -1
6 5 13 6 6 11 15 11 20 1 4 1 8 2 10 0 1 2 10 5 20 2 9 6 25 8 35 3 9 5 17 6
17 3 0 10 41 18 103 6 45 5 70 -4 87 -7 13 -10 26 -7 29 3 3 -6 11 -21 17 -20
9 -32 9 -51 1 -35 -16 -35 -16 -33 14 3 28 32 64 81 99 15 11 27 25 27 32 0 7
4 13 8 13 21 0 35 93 37 235 3 198 -10 251 -79 339 -17 22 -54 89 -83 149 -30
61 -74 140 -100 176 -46 66 -181 211 -196 211 -4 0 -20 11 -35 25 -15 14 -32
25 -39 25 -7 0 -13 4 -13 8 0 5 -19 17 -42 27 -24 10 -61 30 -83 43 -22 14
-41 25 -42 24 -2 -1 -24 8 -50 19 -27 12 -55 22 -63 24 -8 2 -15 4 -15 5 0 12
-236 45 -247 35z"/>
</g>
</svg>
